<?xml version="1.0" encoding="UTF-8" standalone="no"?>
<!DOCTYPE svg PUBLIC "-//W3C//DTD SVG 1.1//EN" "http://www.w3.org/Graphics/SVG/1.1/DTD/svg11.dtd">
<svg version="1.1" xmlns="http://www.w3.org/2000/svg" xmlns:xlink="http://www.w3.org/1999/xlink" preserveAspectRatio="xMidYMid meet" viewBox="60 37.5 205 205" width="205" height="205"><defs><path d="M262.43 38.72L262.43 239.79L61.36 239.79L61.36 38.72L262.43 38.72Z" id="a55t6mJ4m"></path><path d="M256.43 191.57L188.43 191.57L188.43 129.14L186.25 131.68L183.58 134.72L180.84 137.77L178.02 140.85L175.14 143.93L172.18 147.03L169.15 150.13L166.06 153.24L162.9 156.35L159.71 159.43L156.52 162.44L156.02 162.91L156.02 191.57L130.44 191.57L130.44 184.84L128.37 186.44L125.36 188.73L122.39 190.94L119.45 193.06L116.55 195.1L113.71 197.04L110.9 198.89L108.15 200.66L105.44 202.32L102.8 203.9L100.21 205.38L97.69 206.76L95.24 208.04L92.84 209.21L90.53 210.29L88.29 211.25L86.13 212.1L84.06 212.85L82.05 213.49L80.15 214.01L78.33 214.42L76.61 214.7L74.98 214.88L73.45 214.93L72.03 214.85L70.72 214.65L69.51 214.33L68.41 213.88L67.44 213.3L66.58 212.58L65.84 211.75L65.25 210.79L64.78 209.73L64.46 208.55L64.25 207.27L64.17 205.88L64.23 204.39L64.4 202.81L64.7 201.14L65.11 199.36L65.65 197.51L66.3 195.56L67.07 193.54L67.95 191.43L68.94 189.25L70.04 186.99L70.24 186.62L70.24 187.78L70.33 188.98L70.55 190.09L70.87 191.12L71.3 192.06L71.85 192.91L72.51 193.65L73.28 194.29L74.14 194.83L75.1 195.25L76.16 195.57L77.31 195.77L78.54 195.87L79.87 195.87L81.27 195.77L82.75 195.57L84.32 195.26L85.96 194.87L87.66 194.37L89.45 193.78L91.3 193.09L93.22 192.33L95.19 191.46L97.23 190.5L99.32 189.47L101.47 188.35L103.66 187.13L105.91 185.85L108.2 184.47L110.54 183.01L112.92 181.48L115.34 179.87L117.79 178.2L120.27 176.44L122.79 174.61L125.33 172.71L127.9 170.74L130.49 168.71L133.1 166.6L135.73 164.43L138.38 162.21L141.02 159.91L143.69 157.57L146.36 155.15L149.04 152.68L151.71 150.16L154.38 147.58L157.03 144.97L159.62 142.37L162.15 139.77L164.63 137.17L167.05 134.57L169.39 131.98L171.69 129.41L173.91 126.85L176.06 124.3L178.15 121.78L180.17 119.27L182.12 116.79L184 114.34L185.8 111.92L187.53 109.53L189.17 107.18L190.74 104.87L192.23 102.58L193.65 100.35L194.97 98.16L196.21 96.02L197.36 93.93L198.43 91.89L199.41 89.9L200.3 87.98L201.09 86.11L201.79 84.31L202.4 82.57L202.91 80.9L203.32 79.3L203.62 77.78L203.83 76.33L203.94 74.96L203.94 73.67L203.83 72.47L203.62 71.35L203.3 70.32L202.87 69.38L202.32 68.53L201.66 67.79L200.9 67.15L200.03 66.61L199.07 66.2L198.01 65.89L196.86 65.67L195.63 65.57L194.96 65.57L196.66 64.79L198.89 63.83L201.06 62.96L203.14 62.22L205.13 61.58L207.05 61.06L208.86 60.66L210.59 60.36L212.21 60.2L213.74 60.15L215.16 60.22L216.48 60.41L217.69 60.74L218.78 61.19L219.76 61.77L220.62 62.48L221.36 63.32L221.94 64.28L222.42 65.34L222.74 66.51L222.95 67.8L223.02 69.18L222.96 70.67L222.8 72.26L222.49 73.94L222.08 75.7L221.54 77.57L220.9 79.51L220.12 81.54L219.25 83.64L218.26 85.83L217.16 88.08L215.95 90.41L214.64 92.8L214.02 93.87L214.02 165.82L256.43 165.82L256.43 191.57ZM176.35 79.73L176.35 79.72L187.95 79.72L187.95 91.13L187.73 91.13L179.35 104.92L179.35 105.48L156.02 105.48L156.02 135.2L155.79 135.2L130.44 159.91L130.44 105.48L129.69 105.48L129.69 105.47L98.89 105.47L98.89 79.72L130.44 79.72L130.44 79.73L176.35 79.73Z" id="d18edmh6Zn"></path></defs><g><g><use xlink:href="#a55t6mJ4m" opacity="1" fill="#ffffff" fill-opacity="0"></use><g><use xlink:href="#a55t6mJ4m" opacity="1" fill-opacity="0" stroke="#000000" stroke-width="1" stroke-opacity="0"></use></g></g><g><use xlink:href="#d18edmh6Zn" opacity="1" fill="#ffffff" fill-opacity="1"></use><g><use xlink:href="#d18edmh6Zn" opacity="1" fill-opacity="0" stroke="#000000" stroke-width="1" stroke-opacity="0"></use></g></g></g></svg>