<?xml version="1.0" encoding="UTF-8" standalone="no"?>
<!DOCTYPE svg PUBLIC "-//W3C//DTD SVG 1.1//EN" "http://www.w3.org/Graphics/SVG/1.1/DTD/svg11.dtd">
<svg version="1.1" xmlns="http://www.w3.org/2000/svg" xmlns:xlink="http://www.w3.org/1999/xlink" preserveAspectRatio="xMidYMid meet" viewBox="0 0 205 205" width="205" height="205"><defs><path d="M0 0L205 0L205 205L0 205L0 0Z" id="h750F9HjB"></path><path d="M129.55 129.58L198.88 129.58L198.88 155.84L129.55 155.84L129.55 129.58Z" id="a27kjI1p2D"></path><path d="M129.55 89.15L155.64 89.15L155.64 129.69L129.55 129.69L129.55 89.15Z" id="b1osTemNZp"></path><path d="M70.43 147.22L96.51 147.22L96.51 155.84L70.43 155.84L70.43 147.22Z" id="c4hcEGteyV"></path><path d="M159.38 22.45L160.49 22.91L161.49 23.5L162.37 24.23L163.12 25.08L163.72 26.06L164.2 27.14L164.53 28.34L164.74 29.65L164.82 31.06L164.76 32.58L164.59 34.2L164.28 35.91L163.86 37.71L163.31 39.61L162.65 41.59L161.86 43.66L160.97 45.8L159.96 48.03L158.84 50.33L157.61 52.7L156.27 55.14L154.82 57.65L153.28 60.22L151.63 62.84L149.88 65.53L148.03 68.26L146.09 71.05L144.06 73.88L141.93 76.76L139.71 79.68L137.4 82.64L135.01 85.63L132.53 88.65L129.97 91.7L127.33 94.78L124.61 97.88L121.81 100.99L118.94 104.13L116 107.27L112.98 110.43L109.89 113.59L106.74 116.76L103.52 119.93L100.27 123.07L97.02 126.14L93.77 129.15L90.53 132.09L87.31 134.96L84.09 137.75L80.89 140.48L77.71 143.13L74.56 145.7L71.42 148.2L68.32 150.61L65.25 152.94L62.22 155.19L59.23 157.35L56.27 159.43L53.37 161.41L50.51 163.3L47.7 165.1L44.94 166.8L42.25 168.41L39.61 169.92L37.04 171.32L34.54 172.63L32.1 173.82L29.74 174.92L27.46 175.9L25.26 176.77L23.14 177.53L21.1 178.18L19.16 178.71L17.3 179.13L15.55 179.42L13.89 179.6L12.33 179.65L10.88 179.57L9.54 179.37L8.31 179.04L7.19 178.58L6.2 177.99L5.32 177.26L4.57 176.41L3.97 175.43L3.49 174.35L3.16 173.15L2.95 171.84L2.87 170.43L2.93 168.91L3.1 167.3L3.41 165.59L3.83 163.78L4.38 161.89L5.04 159.9L5.82 157.84L6.72 155.69L7.73 153.47L8.85 151.17L9.05 150.79L9.05 151.97L9.15 153.2L9.37 154.33L9.7 155.38L10.14 156.34L10.7 157.2L11.37 157.96L12.15 158.61L13.03 159.16L14.01 159.59L15.09 159.91L16.26 160.12L17.52 160.22L18.87 160.22L20.3 160.12L21.81 159.91L23.41 159.6L25.08 159.2L26.82 158.69L28.64 158.09L30.53 157.39L32.48 156.61L34.49 155.72L36.57 154.75L38.7 153.69L40.89 152.55L43.13 151.31L45.42 150L47.76 148.6L50.14 147.11L52.57 145.55L55.03 143.91L57.53 142.2L60.06 140.41L62.63 138.54L65.22 136.61L67.84 134.6L70.48 132.53L73.14 130.38L75.82 128.17L78.52 125.9L81.22 123.56L83.94 121.17L86.66 118.71L89.39 116.19L92.11 113.62L94.84 110.99L97.54 108.33L100.18 105.68L102.76 103.02L105.29 100.37L107.75 97.72L110.14 95.08L112.48 92.46L114.75 89.85L116.94 87.25L119.07 84.68L121.13 82.13L123.12 79.6L125.03 77.1L126.87 74.63L128.63 72.2L130.31 69.8L131.91 67.44L133.43 65.11L134.87 62.84L136.22 60.6L137.48 58.42L138.66 56.29L139.75 54.21L140.75 52.18L141.65 50.22L142.46 48.32L143.17 46.48L143.79 44.71L144.31 43.01L144.73 41.38L145.04 39.83L145.25 38.35L145.36 36.95L145.36 35.64L145.25 34.41L145.04 33.27L144.71 32.22L144.27 31.26L143.71 30.4L143.04 29.64L142.26 28.99L141.38 28.44L140.4 28.02L139.32 27.7L138.15 27.48L136.89 27.38L136.21 27.38L137.94 26.58L140.22 25.6L142.43 24.72L144.55 23.96L146.58 23.31L148.53 22.78L150.38 22.37L152.14 22.07L153.8 21.9L155.35 21.85L156.8 21.92L158.15 22.12L158.15 22.12L159.38 22.45Z" id="dZQ45UedJ"></path><path d="M70.43 123.56L70.43 98.14L96.51 98.14L70.43 123.56Z" id="b1Mfey9HW4"></path><path d="M38.26 41.8L70.43 41.8L70.43 68.06L38.26 68.06L38.26 41.8Z" id="a3uTBs5dg5"></path><path d="M70.43 66.02L96.51 66.02L96.51 98.37L70.43 98.37L70.43 66.02Z" id="e1wmxKFJqR"></path><path d="M69.67 41.81L120.29 41.81L120.29 68.07L69.67 68.07L69.67 41.81Z" id="eceqb8tMD"></path><path d="M70.43 148.97L96.51 148.97L96.51 126.32L70.43 148.97Z" id="c17WSLgCQi"></path><path d="M129.55 92.01L155.64 92.01L155.64 54.93L129.55 92.01Z" id="a3w5REgADO"></path><path d="M176.28 129.58L198.88 129.58L198.88 155.84L176.28 129.58Z" id="b2qOTjjimA"></path><path d="M129.06 53.08L119.94 53.08L119.94 68.07L129.06 53.08Z" id="h2j5IlvuJU"></path><path d="M117.24 41.8L129.06 41.8L129.06 53.44L117.24 53.44L117.24 41.8Z" id="a49HWHjUuH"></path></defs><g><g><use xlink:href="#h750F9HjB" opacity="1" fill="#ffffff" fill-opacity="1"></use><g><use xlink:href="#h750F9HjB" opacity="1" fill-opacity="0" stroke="#000000" stroke-width="1" stroke-opacity="0"></use></g></g><g><use xlink:href="#a27kjI1p2D" opacity="1" fill="#186993" fill-opacity="1"></use><g><use xlink:href="#a27kjI1p2D" opacity="1" fill-opacity="0" stroke="#000000" stroke-width="1" stroke-opacity="0"></use></g></g><g><use xlink:href="#b1osTemNZp" opacity="1" fill="#081340" fill-opacity="1"></use><g><use xlink:href="#b1osTemNZp" opacity="1" fill-opacity="0" stroke="#000000" stroke-width="1" stroke-opacity="0"></use></g></g><g><use xlink:href="#c4hcEGteyV" opacity="1" fill="#081340" fill-opacity="1"></use><g><use xlink:href="#c4hcEGteyV" opacity="1" fill-opacity="0" stroke="#000000" stroke-width="1" stroke-opacity="0"></use></g></g><g><use xlink:href="#dZQ45UedJ" opacity="1" fill="#081340" fill-opacity="1"></use><g><use xlink:href="#dZQ45UedJ" opacity="1" fill-opacity="0" stroke="#000000" stroke-width="1" stroke-opacity="0"></use></g></g><g><use xlink:href="#b1Mfey9HW4" opacity="1" fill="#00ccff" fill-opacity="1"></use><g><use xlink:href="#b1Mfey9HW4" opacity="1" fill-opacity="0" stroke="#000000" stroke-width="1" stroke-opacity="0"></use></g></g><g><use xlink:href="#a3uTBs5dg5" opacity="1" fill="#081340" fill-opacity="1"></use><g><use xlink:href="#a3uTBs5dg5" opacity="1" fill-opacity="0" stroke="#000000" stroke-width="1" stroke-opacity="0"></use></g></g><g><use xlink:href="#e1wmxKFJqR" opacity="1" fill="#00ccff" fill-opacity="1"></use><g><use xlink:href="#e1wmxKFJqR" opacity="1" fill-opacity="0" stroke="#000000" stroke-width="1" stroke-opacity="0"></use></g></g><g><use xlink:href="#eceqb8tMD" opacity="1" fill="#186993" fill-opacity="1"></use><g><use xlink:href="#eceqb8tMD" opacity="1" fill-opacity="0" stroke="#000000" stroke-width="1" stroke-opacity="0"></use></g></g><g><use xlink:href="#c17WSLgCQi" opacity="1" fill="#081340" fill-opacity="1"></use><g><use xlink:href="#c17WSLgCQi" opacity="1" fill-opacity="0" stroke="#000000" stroke-width="1" stroke-opacity="0"></use></g></g><g><use xlink:href="#a3w5REgADO" opacity="1" fill="#081340" fill-opacity="1"></use><g><use xlink:href="#a3w5REgADO" opacity="1" fill-opacity="0" stroke="#000000" stroke-width="1" stroke-opacity="0"></use></g></g><g><use xlink:href="#b2qOTjjimA" opacity="1" fill="#00ccff" fill-opacity="1"></use><g><use xlink:href="#b2qOTjjimA" opacity="1" fill-opacity="0" stroke="#000000" stroke-width="1" stroke-opacity="0"></use></g></g><g><use xlink:href="#h2j5IlvuJU" opacity="1" fill="#186993" fill-opacity="1"></use><g><use xlink:href="#h2j5IlvuJU" opacity="1" fill-opacity="0" stroke="#000000" stroke-width="1" stroke-opacity="0"></use></g></g><g><use xlink:href="#a49HWHjUuH" opacity="1" fill="#186993" fill-opacity="1"></use><g><use xlink:href="#a49HWHjUuH" opacity="1" fill-opacity="0" stroke="#000000" stroke-width="1" stroke-opacity="0"></use></g></g></g></svg>