<?xml version="1.0" encoding="UTF-8" standalone="no"?>
<!DOCTYPE svg PUBLIC "-//W3C//DTD SVG 1.1//EN" "http://www.w3.org/Graphics/SVG/1.1/DTD/svg11.dtd">
<svg version="1.1" xmlns="http://www.w3.org/2000/svg" xmlns:xlink="http://www.w3.org/1999/xlink" preserveAspectRatio="xMidYMid meet" viewBox="-1 -1 208.99999999999997 208.99999999999997" width="205" height="205"><defs><path d="M0 0L205 0L205 205L0 205L0 0Z" id="c9B2iFahyX"></path><path d="M129.55 129.58L198.88 129.58L198.88 155.84L129.55 155.84L129.55 129.58Z" id="bNP8PjgCX"></path><path d="M129.55 129.58L198.88 129.58L198.88 155.84L129.55 155.84L129.55 129.58Z" id="azskXxWMS"></path><path d="M129.55 89.15L155.64 89.15L155.64 129.69L129.55 129.69L129.55 89.15Z" id="aWSlhA1Ug"></path><path d="M129.55 89.15L155.64 89.15L155.64 129.69L129.55 129.69L129.55 89.15Z" id="c5jlXXaVQ"></path><path d="M129.55 89.15L155.64 89.15L155.64 129.69L129.55 129.69L129.55 89.15Z" id="c5DegxirRf"></path><path d="M129.55 89.15L155.64 89.15L155.64 129.69L129.55 129.69L129.55 89.15Z" id="c2Eaeq1SRH"></path><path d="M129.55 89.15L155.64 89.15L155.64 129.69L129.55 129.69L129.55 89.15Z" id="b1Y0QRq7yZ"></path><path d="M129.55 89.15L155.64 89.15L155.64 129.69L129.55 129.69L129.55 89.15Z" id="ajOZ3GBgr"></path><path d="M129.55 89.15L155.64 89.15L155.64 129.69L129.55 129.69L129.55 89.15Z" id="a7LfFjpSo"></path><path d="M129.55 89.15L155.64 89.15L155.64 129.69L129.55 129.69L129.55 89.15Z" id="bVuZ6LMjq"></path><path d="M70.43 147.22L96.51 147.22L96.51 155.84L70.43 155.84L70.43 147.22Z" id="f2wxt1XHZ"></path><path d="M70.43 147.22L96.51 147.22L96.51 155.84L70.43 155.84L70.43 147.22Z" id="b2cXVIYckn"></path><path d="M70.43 147.22L96.51 147.22L96.51 155.84L70.43 155.84L70.43 147.22Z" id="lnxYaRkCQ"></path><path d="M70.43 147.22L96.51 147.22L96.51 155.84L70.43 155.84L70.43 147.22Z" id="eVIRdKg9H"></path><path d="M70.43 147.22L96.51 147.22L96.51 155.84L70.43 155.84L70.43 147.22Z" id="duukndNDQ"></path><path d="M70.43 147.22L96.51 147.22L96.51 155.84L70.43 155.84L70.43 147.22Z" id="b1iGMsSwoA"></path><path d="M70.43 147.22L96.51 147.22L96.51 155.84L70.43 155.84L70.43 147.22Z" id="g2UWrd9tN5"></path><path d="M70.43 147.22L96.51 147.22L96.51 155.84L70.43 155.84L70.43 147.22Z" id="hGTnSvLbe"></path><path d="M157.77 23.87L159 24.2L160.12 24.66L161.12 25.26L162 25.98L162.74 26.84L163.35 27.81L163.82 28.9L164.16 30.1L164.37 31.4L164.44 32.82L164.39 34.33L164.21 35.95L163.91 37.66L163.48 39.47L162.94 41.36L162.27 43.34L161.49 45.41L160.59 47.56L159.58 49.78L158.46 52.08L157.23 54.45L155.89 56.89L154.45 59.4L152.9 61.97L151.25 64.6L149.51 67.28L147.66 70.02L145.72 72.8L143.68 75.64L141.55 78.52L139.34 81.43L137.03 84.39L134.64 87.38L132.16 90.4L129.6 93.45L126.96 96.53L124.24 99.63L121.44 102.75L118.57 105.88L115.62 109.03L112.6 112.18L109.52 115.35L106.36 118.52L103.15 121.68L99.89 124.82L96.65 127.89L93.4 130.9L90.16 133.84L86.93 136.71L83.72 139.51L80.52 142.23L77.34 144.88L74.18 147.46L71.05 149.95L67.95 152.37L64.88 154.7L61.85 156.95L58.85 159.11L55.9 161.18L52.99 163.16L50.13 165.06L47.32 166.85L44.57 168.56L41.87 170.16L39.24 171.67L36.67 173.08L34.16 174.38L31.73 175.58L29.37 176.67L27.08 177.65L24.88 178.53L22.76 179.29L20.73 179.94L18.78 180.47L16.93 180.88L15.17 181.18L13.51 181.35L11.96 181.4L10.51 181.33L9.17 181.12L7.94 180.79L6.82 180.33L5.82 179.74L4.95 179.01L4.2 178.16L3.59 177.19L3.12 176.1L2.78 174.9L2.57 173.6L2.5 172.18L2.55 170.67L2.73 169.05L3.03 167.34L3.46 165.54L4 163.64L4.67 161.66L5.45 159.59L6.35 157.44L7.36 155.22L8.48 152.92L8.67 152.54L8.67 153.72L8.78 154.95L9 156.09L9.33 157.14L9.77 158.09L10.32 158.95L11 159.71L11.78 160.37L12.66 160.91L13.64 161.34L14.72 161.66L15.89 161.87L17.15 161.98L18.49 161.98L19.92 161.87L21.44 161.66L23.03 161.36L24.7 160.95L26.45 160.45L28.27 159.84L30.15 159.15L32.1 158.36L34.12 157.48L36.19 156.51L38.33 155.45L40.51 154.3L42.76 153.07L45.05 151.75L47.38 150.35L49.77 148.87L52.19 147.31L54.66 145.67L57.16 143.95L59.69 142.16L62.25 140.3L64.85 138.36L67.46 136.36L70.11 134.28L72.77 132.14L75.45 129.93L78.14 127.65L80.85 125.32L83.56 122.92L86.28 120.46L89.01 117.94L91.74 115.37L94.47 112.74L97.16 110.09L99.8 107.43L102.39 104.77L104.91 102.12L107.37 99.47L109.77 96.84L112.1 94.21L114.37 91.6L116.57 89.01L118.7 86.43L120.76 83.88L122.75 81.36L124.66 78.86L126.5 76.39L128.26 73.95L129.94 71.55L131.54 69.19L133.06 66.87L134.49 64.59L135.85 62.36L137.11 60.17L138.29 58.04L139.37 55.96L140.37 53.94L141.27 51.97L142.08 50.07L142.8 48.23L143.42 46.46L143.93 44.76L144.35 43.13L144.67 41.58L144.88 40.1L144.99 38.71L144.99 37.39L144.88 36.16L144.66 35.02L144.33 33.97L143.89 33.02L143.34 32.16L142.67 31.39L141.88 30.74L141 30.2L140.02 29.77L138.94 29.45L137.78 29.24L136.52 29.13L135.84 29.13L137.56 28.33L139.85 27.35L142.05 26.48L144.17 25.71L146.21 25.07L148.15 24.53L150.01 24.12L151.76 23.82L153.42 23.65L154.98 23.6L156.43 23.67L157.77 23.87Z" id="bc9YGVNJy"></path><path d="M70.43 123.56L70.43 98.14L96.51 98.14L70.43 123.56Z" id="bA5RJAhLO"></path><path d="M70.43 123.56L70.43 98.14L96.51 98.14L70.43 123.56Z" id="b3HhYq79K"></path><path d="M70.43 123.56L70.43 98.14L96.51 98.14L70.43 123.56Z" id="e17jA75kVV"></path><path d="M70.43 123.56L70.43 98.14L96.51 98.14L70.43 123.56Z" id="a1H3VXRSl"></path><path d="M70.43 123.56L70.43 98.14L96.51 98.14L70.43 123.56Z" id="fb6EAbfO"></path><path d="M70.43 123.56L70.43 98.14L96.51 98.14L70.43 123.56Z" id="e2HGqmiuF"></path><path d="M70.43 123.56L70.43 98.14L96.51 98.14L70.43 123.56Z" id="c1YVnTRvcH"></path><path d="M70.43 123.56L70.43 98.14L96.51 98.14L70.43 123.56Z" id="eJ9sHT6sS"></path><path d="M38.26 41.8L70.43 41.8L70.43 68.06L38.26 68.06L38.26 41.8Z" id="bN5Xw15CD"></path><path d="M38.26 41.8L70.43 41.8L70.43 68.06L38.26 68.06L38.26 41.8Z" id="c2aFflNz5K"></path><path d="M38.26 41.8L70.43 41.8L70.43 68.06L38.26 68.06L38.26 41.8Z" id="dc3GWDYKTS"></path><path d="M38.26 41.8L70.43 41.8L70.43 68.06L38.26 68.06L38.26 41.8Z" id="a2fLEkpFIT"></path><path d="M38.26 41.8L70.43 41.8L70.43 68.06L38.26 68.06L38.26 41.8Z" id="bGNz1KcJS"></path><path d="M38.26 41.8L70.43 41.8L70.43 68.06L38.26 68.06L38.26 41.8Z" id="a3MSPkuYV"></path><path d="M38.26 41.8L70.43 41.8L70.43 68.06L38.26 68.06L38.26 41.8Z" id="awswjRw5"></path><path d="M38.26 41.8L70.43 41.8L70.43 68.06L38.26 68.06L38.26 41.8Z" id="aKp42VSrc"></path><path d="M70.43 66.02L96.51 66.02L96.51 98.37L70.43 98.37L70.43 66.02Z" id="a1DGqtqNrO"></path><path d="M70.43 66.02L96.51 66.02L96.51 98.37L70.43 98.37L70.43 66.02Z" id="a2dldkYgl0"></path><path d="M70.43 66.02L96.51 66.02L96.51 98.37L70.43 98.37L70.43 66.02Z" id="bH5oxOkW2"></path><path d="M70.43 66.02L96.51 66.02L96.51 98.37L70.43 98.37L70.43 66.02Z" id="b94GkaK2A"></path><path d="M70.43 66.02L96.51 66.02L96.51 98.37L70.43 98.37L70.43 66.02Z" id="e2I0RL6ZQS"></path><path d="M70.43 66.02L96.51 66.02L96.51 98.37L70.43 98.37L70.43 66.02Z" id="c2dPDepXAm"></path><path d="M70.43 66.02L96.51 66.02L96.51 98.37L70.43 98.37L70.43 66.02Z" id="i3npsB2zya"></path><path d="M70.43 66.02L96.51 66.02L96.51 98.37L70.43 98.37L70.43 66.02Z" id="b1ASNMAdqN"></path><path d="M69.67 41.81L120.29 41.81L120.29 68.07L69.67 68.07L69.67 41.81Z" id="d2kRwWt5Vz"></path><path d="M69.67 41.81L120.29 41.81L120.29 68.07L69.67 68.07L69.67 41.81Z" id="cvNvTk3Lo"></path><path d="M69.67 41.81L120.29 41.81L120.29 68.07L69.67 68.07L69.67 41.81Z" id="bBgxSlSRA"></path><path d="M69.67 41.81L120.29 41.81L120.29 68.07L69.67 68.07L69.67 41.81Z" id="e1jiUds88P"></path><path d="M69.67 41.81L120.29 41.81L120.29 68.07L69.67 68.07L69.67 41.81Z" id="f1PQ05jV6z"></path><path d="M69.67 41.81L120.29 41.81L120.29 68.07L69.67 68.07L69.67 41.81Z" id="kfVre7TCC"></path><path d="M69.67 41.81L120.29 41.81L120.29 68.07L69.67 68.07L69.67 41.81Z" id="c2N2vv1A9D"></path><path d="M69.67 41.81L120.29 41.81L120.29 68.07L69.67 68.07L69.67 41.81Z" id="byS65aAAJ"></path><path d="M70.43 148.97L96.51 148.97L96.51 126.32L70.43 148.97Z" id="fW4brO46V"></path><path d="M70.43 148.97L96.51 148.97L96.51 126.32L70.43 148.97Z" id="a18zQnE0V"></path><path d="M70.43 148.97L96.51 148.97L96.51 126.32L70.43 148.97Z" id="b1If9E2mrA"></path><path d="M70.43 148.97L96.51 148.97L96.51 126.32L70.43 148.97Z" id="b4oQk2KBlM"></path><path d="M70.43 148.97L96.51 148.97L96.51 126.32L70.43 148.97Z" id="d5V71jpJOp"></path><path d="M70.43 148.97L96.51 148.97L96.51 126.32L70.43 148.97Z" id="bddhXrztl"></path><path d="M70.43 148.97L96.51 148.97L96.51 126.32L70.43 148.97Z" id="acgTjlSJs"></path><path d="M70.43 148.97L96.51 148.97L96.51 126.32L70.43 148.97Z" id="c5X9UcxwUa"></path><path d="M129.55 92.01L155.64 92.01L155.64 54.93L129.55 92.01Z" id="beP2yCWMb"></path><path d="M129.55 92.01L155.64 92.01L155.64 54.93L129.55 92.01Z" id="b3NZ7VApXN"></path><path d="M129.55 92.01L155.64 92.01L155.64 54.93L129.55 92.01Z" id="a4S40aLaI3"></path><path d="M129.55 92.01L155.64 92.01L155.64 54.93L129.55 92.01Z" id="f6IpN0C68z"></path><path d="M129.55 92.01L155.64 92.01L155.64 54.93L129.55 92.01Z" id="a2xlUI2EOh"></path><path d="M129.55 92.01L155.64 92.01L155.64 54.93L129.55 92.01Z" id="f1zxHqw8Uf"></path><path d="M129.55 92.01L155.64 92.01L155.64 54.93L129.55 92.01Z" id="eEOj2kFyk"></path><path d="M129.55 92.01L155.64 92.01L155.64 54.93L129.55 92.01Z" id="kfZ4FfhYv"></path><path d="M129.55 129.58L198.88 129.58L198.88 155.84L129.55 155.84L129.55 129.58Z" id="a4fDQGegl1"></path><path d="M129.55 129.58L198.88 129.58L198.88 155.84L129.55 155.84L129.55 129.58Z" id="b23n6XITUv"></path><path d="M129.55 129.58L198.88 129.58L198.88 155.84L129.55 155.84L129.55 129.58Z" id="actnOwHeR"></path><path d="M129.55 129.58L198.88 129.58L198.88 155.84L129.55 155.84L129.55 129.58Z" id="d6ZOsfDDqJ"></path><path d="M129.55 129.58L198.88 129.58L198.88 155.84L129.55 155.84L129.55 129.58Z" id="fc7gO9UDi"></path><path d="M129.55 129.58L198.88 129.58L198.88 155.84L129.55 155.84L129.55 129.58Z" id="a1k0hfWts"></path><path d="M176.28 129.58L198.88 129.58L198.88 155.84L176.28 129.58Z" id="asmXGacSw"></path><path d="M176.28 129.58L198.88 129.58L198.88 155.84L176.28 129.58Z" id="b3lr6Vhqfe"></path><path d="M176.28 129.58L198.88 129.58L198.88 155.84L176.28 129.58Z" id="b6CsKZd4OQ"></path><path d="M176.28 129.58L198.88 129.58L198.88 155.84L176.28 129.58Z" id="f93ryb0ro"></path><path d="M176.28 129.58L198.88 129.58L198.88 155.84L176.28 129.58Z" id="f1Aob8mJQP"></path><path d="M176.28 129.58L198.88 129.58L198.88 155.84L176.28 129.58Z" id="ap3B6XuEZ"></path><path d="M176.28 129.58L198.88 129.58L198.88 155.84L176.28 129.58Z" id="dG7wpgIjE"></path><path d="M176.28 129.58L198.88 129.58L198.88 155.84L176.28 129.58Z" id="d8Y45AkCot"></path><path d="M129.06 53.08L119.94 53.08L119.94 68.07L129.06 53.08Z" id="g4BkBq559l"></path><path d="M129.06 53.08L119.94 53.08L119.94 68.07L129.06 53.08Z" id="eSzY3SWaB"></path><path d="M129.06 53.08L119.94 53.08L119.94 68.07L129.06 53.08Z" id="a9AjBsz72"></path><path d="M129.06 53.08L119.94 53.08L119.94 68.07L129.06 53.08Z" id="cjP7vJoEk"></path><path d="M129.06 53.08L119.94 53.08L119.94 68.07L129.06 53.08Z" id="b2cfZYowbp"></path><path d="M129.06 53.08L119.94 53.08L119.94 68.07L129.06 53.08Z" id="b6MYQ4y7fM"></path><path d="M129.06 53.08L119.94 53.08L119.94 68.07L129.06 53.08Z" id="akq05MI7C"></path><path d="M129.06 53.08L119.94 53.08L119.94 68.07L129.06 53.08Z" id="a3LR192R1H"></path><path d="M117.24 41.8L129.06 41.8L129.06 53.44L117.24 53.44L117.24 41.8Z" id="fvVPXvyp9"></path><path d="M117.24 41.8L129.06 41.8L129.06 53.44L117.24 53.44L117.24 41.8Z" id="b2zpfevjbF"></path><path d="M117.24 41.8L129.06 41.8L129.06 53.44L117.24 53.44L117.24 41.8Z" id="a2uVJMNA8E"></path><path d="M117.24 41.8L129.06 41.8L129.06 53.44L117.24 53.44L117.24 41.8Z" id="c44JmRxGFv"></path><path d="M117.24 41.8L129.06 41.8L129.06 53.44L117.24 53.44L117.24 41.8Z" id="aFXhv9DHB"></path><path d="M117.24 41.8L129.06 41.8L129.06 53.44L117.24 53.44L117.24 41.8Z" id="c1Na0rPuG8"></path><path d="M117.24 41.8L129.06 41.8L129.06 53.44L117.24 53.44L117.24 41.8Z" id="a1qa36cxaP"></path><path d="M117.24 41.8L129.06 41.8L129.06 53.44L117.24 53.44L117.24 41.8Z" id="j1KlnkFF9c"></path></defs><g><g><use xlink:href="#c9B2iFahyX" opacity="1" fill="#ffffff" fill-opacity="0"></use><g><use xlink:href="#c9B2iFahyX" opacity="1" fill-opacity="0" stroke="#000000" stroke-width="1" stroke-opacity="0"></use></g></g><g><use xlink:href="#bNP8PjgCX" opacity="1" fill="#ffffff" fill-opacity="1"></use><g><use xlink:href="#bNP8PjgCX" opacity="1" fill-opacity="0" stroke="#000000" stroke-width="1" stroke-opacity="0"></use></g></g><g><use xlink:href="#azskXxWMS" opacity="1" fill="#ffffff" fill-opacity="1"></use><g><use xlink:href="#azskXxWMS" opacity="1" fill-opacity="0" stroke="#000000" stroke-width="1" stroke-opacity="0"></use></g></g><g><use xlink:href="#aWSlhA1Ug" opacity="1" fill="#ffffff" fill-opacity="1"></use><g><use xlink:href="#aWSlhA1Ug" opacity="1" fill-opacity="0" stroke="#000000" stroke-width="1" stroke-opacity="0"></use></g></g><g><use xlink:href="#c5jlXXaVQ" opacity="1" fill="#ffffff" fill-opacity="1"></use><g><use xlink:href="#c5jlXXaVQ" opacity="1" fill-opacity="0" stroke="#000000" stroke-width="1" stroke-opacity="0"></use></g></g><g><use xlink:href="#c5DegxirRf" opacity="1" fill="#ffffff" fill-opacity="1"></use><g><use xlink:href="#c5DegxirRf" opacity="1" fill-opacity="0" stroke="#000000" stroke-width="1" stroke-opacity="0"></use></g></g><g><use xlink:href="#c2Eaeq1SRH" opacity="1" fill="#ffffff" fill-opacity="1"></use><g><use xlink:href="#c2Eaeq1SRH" opacity="1" fill-opacity="0" stroke="#000000" stroke-width="1" stroke-opacity="0"></use></g></g><g><use xlink:href="#b1Y0QRq7yZ" opacity="1" fill="#ffffff" fill-opacity="1"></use><g><use xlink:href="#b1Y0QRq7yZ" opacity="1" fill-opacity="0" stroke="#000000" stroke-width="1" stroke-opacity="0"></use></g></g><g><use xlink:href="#ajOZ3GBgr" opacity="1" fill="#ffffff" fill-opacity="1"></use><g><use xlink:href="#ajOZ3GBgr" opacity="1" fill-opacity="0" stroke="#000000" stroke-width="1" stroke-opacity="0"></use></g></g><g><use xlink:href="#a7LfFjpSo" opacity="1" fill="#ffffff" fill-opacity="1"></use><g><use xlink:href="#a7LfFjpSo" opacity="1" fill-opacity="0" stroke="#000000" stroke-width="1" stroke-opacity="0"></use></g></g><g><use xlink:href="#bVuZ6LMjq" opacity="1" fill="#ffffff" fill-opacity="1"></use><g><use xlink:href="#bVuZ6LMjq" opacity="1" fill-opacity="0" stroke="#000000" stroke-width="1" stroke-opacity="0"></use></g></g><g><use xlink:href="#f2wxt1XHZ" opacity="1" fill="#ffffff" fill-opacity="1"></use><g><use xlink:href="#f2wxt1XHZ" opacity="1" fill-opacity="0" stroke="#000000" stroke-width="1" stroke-opacity="0"></use></g></g><g><use xlink:href="#b2cXVIYckn" opacity="1" fill="#ffffff" fill-opacity="1"></use><g><use xlink:href="#b2cXVIYckn" opacity="1" fill-opacity="0" stroke="#000000" stroke-width="1" stroke-opacity="0"></use></g></g><g><use xlink:href="#lnxYaRkCQ" opacity="1" fill="#ffffff" fill-opacity="1"></use><g><use xlink:href="#lnxYaRkCQ" opacity="1" fill-opacity="0" stroke="#000000" stroke-width="1" stroke-opacity="0"></use></g></g><g><use xlink:href="#eVIRdKg9H" opacity="1" fill="#ffffff" fill-opacity="1"></use><g><use xlink:href="#eVIRdKg9H" opacity="1" fill-opacity="0" stroke="#000000" stroke-width="1" stroke-opacity="0"></use></g></g><g><use xlink:href="#duukndNDQ" opacity="1" fill="#ffffff" fill-opacity="1"></use><g><use xlink:href="#duukndNDQ" opacity="1" fill-opacity="0" stroke="#000000" stroke-width="1" stroke-opacity="0"></use></g></g><g><use xlink:href="#b1iGMsSwoA" opacity="1" fill="#ffffff" fill-opacity="1"></use><g><use xlink:href="#b1iGMsSwoA" opacity="1" fill-opacity="0" stroke="#000000" stroke-width="1" stroke-opacity="0"></use></g></g><g><use xlink:href="#g2UWrd9tN5" opacity="1" fill="#ffffff" fill-opacity="1"></use><g><use xlink:href="#g2UWrd9tN5" opacity="1" fill-opacity="0" stroke="#000000" stroke-width="1" stroke-opacity="0"></use></g></g><g><use xlink:href="#hGTnSvLbe" opacity="1" fill="#ffffff" fill-opacity="1"></use><g><use xlink:href="#hGTnSvLbe" opacity="1" fill-opacity="0" stroke="#000000" stroke-width="1" stroke-opacity="0"></use></g></g><g><use xlink:href="#bc9YGVNJy" opacity="1" fill="#ffffff" fill-opacity="1"></use><g><use xlink:href="#bc9YGVNJy" opacity="1" fill-opacity="0" stroke="#000000" stroke-width="1" stroke-opacity="0"></use></g></g><g><use xlink:href="#bA5RJAhLO" opacity="1" fill="#ffffff" fill-opacity="1"></use><g><use xlink:href="#bA5RJAhLO" opacity="1" fill-opacity="0" stroke="#000000" stroke-width="1" stroke-opacity="0"></use></g></g><g><use xlink:href="#b3HhYq79K" opacity="1" fill="#ffffff" fill-opacity="1"></use><g><use xlink:href="#b3HhYq79K" opacity="1" fill-opacity="0" stroke="#000000" stroke-width="1" stroke-opacity="0"></use></g></g><g><use xlink:href="#e17jA75kVV" opacity="1" fill="#ffffff" fill-opacity="1"></use><g><use xlink:href="#e17jA75kVV" opacity="1" fill-opacity="0" stroke="#000000" stroke-width="1" stroke-opacity="0"></use></g></g><g><use xlink:href="#a1H3VXRSl" opacity="1" fill="#ffffff" fill-opacity="1"></use><g><use xlink:href="#a1H3VXRSl" opacity="1" fill-opacity="0" stroke="#000000" stroke-width="1" stroke-opacity="0"></use></g></g><g><use xlink:href="#fb6EAbfO" opacity="1" fill="#ffffff" fill-opacity="1"></use><g><use xlink:href="#fb6EAbfO" opacity="1" fill-opacity="0" stroke="#000000" stroke-width="1" stroke-opacity="0"></use></g></g><g><use xlink:href="#e2HGqmiuF" opacity="1" fill="#ffffff" fill-opacity="1"></use><g><use xlink:href="#e2HGqmiuF" opacity="1" fill-opacity="0" stroke="#000000" stroke-width="1" stroke-opacity="0"></use></g></g><g><use xlink:href="#c1YVnTRvcH" opacity="1" fill="#ffffff" fill-opacity="1"></use><g><use xlink:href="#c1YVnTRvcH" opacity="1" fill-opacity="0" stroke="#000000" stroke-width="1" stroke-opacity="0"></use></g></g><g><use xlink:href="#eJ9sHT6sS" opacity="1" fill="#ffffff" fill-opacity="1"></use><g><use xlink:href="#eJ9sHT6sS" opacity="1" fill-opacity="0" stroke="#000000" stroke-width="1" stroke-opacity="0"></use></g></g><g><use xlink:href="#bN5Xw15CD" opacity="1" fill="#ffffff" fill-opacity="1"></use><g><use xlink:href="#bN5Xw15CD" opacity="1" fill-opacity="0" stroke="#000000" stroke-width="1" stroke-opacity="0"></use></g></g><g><use xlink:href="#c2aFflNz5K" opacity="1" fill="#ffffff" fill-opacity="1"></use><g><use xlink:href="#c2aFflNz5K" opacity="1" fill-opacity="0" stroke="#000000" stroke-width="1" stroke-opacity="0"></use></g></g><g><use xlink:href="#dc3GWDYKTS" opacity="1" fill="#ffffff" fill-opacity="1"></use><g><use xlink:href="#dc3GWDYKTS" opacity="1" fill-opacity="0" stroke="#000000" stroke-width="1" stroke-opacity="0"></use></g></g><g><use xlink:href="#a2fLEkpFIT" opacity="1" fill="#ffffff" fill-opacity="1"></use><g><use xlink:href="#a2fLEkpFIT" opacity="1" fill-opacity="0" stroke="#000000" stroke-width="1" stroke-opacity="0"></use></g></g><g><use xlink:href="#bGNz1KcJS" opacity="1" fill="#ffffff" fill-opacity="1"></use><g><use xlink:href="#bGNz1KcJS" opacity="1" fill-opacity="0" stroke="#000000" stroke-width="1" stroke-opacity="0"></use></g></g><g><use xlink:href="#a3MSPkuYV" opacity="1" fill="#ffffff" fill-opacity="1"></use><g><use xlink:href="#a3MSPkuYV" opacity="1" fill-opacity="0" stroke="#000000" stroke-width="1" stroke-opacity="0"></use></g></g><g><use xlink:href="#awswjRw5" opacity="1" fill="#ffffff" fill-opacity="1"></use><g><use xlink:href="#awswjRw5" opacity="1" fill-opacity="0" stroke="#000000" stroke-width="1" stroke-opacity="0"></use></g></g><g><use xlink:href="#aKp42VSrc" opacity="1" fill="#ffffff" fill-opacity="1"></use><g><use xlink:href="#aKp42VSrc" opacity="1" fill-opacity="0" stroke="#000000" stroke-width="1" stroke-opacity="0"></use></g></g><g><use xlink:href="#a1DGqtqNrO" opacity="1" fill="#ffffff" fill-opacity="1"></use><g><use xlink:href="#a1DGqtqNrO" opacity="1" fill-opacity="0" stroke="#000000" stroke-width="1" stroke-opacity="0"></use></g></g><g><use xlink:href="#a2dldkYgl0" opacity="1" fill="#ffffff" fill-opacity="1"></use><g><use xlink:href="#a2dldkYgl0" opacity="1" fill-opacity="0" stroke="#000000" stroke-width="1" stroke-opacity="0"></use></g></g><g><use xlink:href="#bH5oxOkW2" opacity="1" fill="#ffffff" fill-opacity="1"></use><g><use xlink:href="#bH5oxOkW2" opacity="1" fill-opacity="0" stroke="#000000" stroke-width="1" stroke-opacity="0"></use></g></g><g><use xlink:href="#b94GkaK2A" opacity="1" fill="#ffffff" fill-opacity="1"></use><g><use xlink:href="#b94GkaK2A" opacity="1" fill-opacity="0" stroke="#000000" stroke-width="1" stroke-opacity="0"></use></g></g><g><use xlink:href="#e2I0RL6ZQS" opacity="1" fill="#ffffff" fill-opacity="1"></use><g><use xlink:href="#e2I0RL6ZQS" opacity="1" fill-opacity="0" stroke="#000000" stroke-width="1" stroke-opacity="0"></use></g></g><g><use xlink:href="#c2dPDepXAm" opacity="1" fill="#ffffff" fill-opacity="1"></use><g><use xlink:href="#c2dPDepXAm" opacity="1" fill-opacity="0" stroke="#000000" stroke-width="1" stroke-opacity="0"></use></g></g><g><use xlink:href="#i3npsB2zya" opacity="1" fill="#ffffff" fill-opacity="1"></use><g><use xlink:href="#i3npsB2zya" opacity="1" fill-opacity="0" stroke="#000000" stroke-width="1" stroke-opacity="0"></use></g></g><g><use xlink:href="#b1ASNMAdqN" opacity="1" fill="#ffffff" fill-opacity="1"></use><g><use xlink:href="#b1ASNMAdqN" opacity="1" fill-opacity="0" stroke="#000000" stroke-width="1" stroke-opacity="0"></use></g></g><g><use xlink:href="#d2kRwWt5Vz" opacity="1" fill="#ffffff" fill-opacity="1"></use><g><use xlink:href="#d2kRwWt5Vz" opacity="1" fill-opacity="0" stroke="#000000" stroke-width="1" stroke-opacity="0"></use></g></g><g><use xlink:href="#cvNvTk3Lo" opacity="1" fill="#ffffff" fill-opacity="1"></use><g><use xlink:href="#cvNvTk3Lo" opacity="1" fill-opacity="0" stroke="#000000" stroke-width="1" stroke-opacity="0"></use></g></g><g><use xlink:href="#bBgxSlSRA" opacity="1" fill="#ffffff" fill-opacity="1"></use><g><use xlink:href="#bBgxSlSRA" opacity="1" fill-opacity="0" stroke="#000000" stroke-width="1" stroke-opacity="0"></use></g></g><g><use xlink:href="#e1jiUds88P" opacity="1" fill="#ffffff" fill-opacity="1"></use><g><use xlink:href="#e1jiUds88P" opacity="1" fill-opacity="0" stroke="#000000" stroke-width="1" stroke-opacity="0"></use></g></g><g><use xlink:href="#f1PQ05jV6z" opacity="1" fill="#ffffff" fill-opacity="1"></use><g><use xlink:href="#f1PQ05jV6z" opacity="1" fill-opacity="0" stroke="#000000" stroke-width="1" stroke-opacity="0"></use></g></g><g><use xlink:href="#kfVre7TCC" opacity="1" fill="#ffffff" fill-opacity="1"></use><g><use xlink:href="#kfVre7TCC" opacity="1" fill-opacity="0" stroke="#000000" stroke-width="1" stroke-opacity="0"></use></g></g><g><use xlink:href="#c2N2vv1A9D" opacity="1" fill="#ffffff" fill-opacity="1"></use><g><use xlink:href="#c2N2vv1A9D" opacity="1" fill-opacity="0" stroke="#000000" stroke-width="1" stroke-opacity="0"></use></g></g><g><use xlink:href="#byS65aAAJ" opacity="1" fill="#ffffff" fill-opacity="1"></use><g><use xlink:href="#byS65aAAJ" opacity="1" fill-opacity="0" stroke="#000000" stroke-width="1" stroke-opacity="0"></use></g></g><g><use xlink:href="#fW4brO46V" opacity="1" fill="#ffffff" fill-opacity="1"></use><g><use xlink:href="#fW4brO46V" opacity="1" fill-opacity="0" stroke="#000000" stroke-width="1" stroke-opacity="0"></use></g></g><g><use xlink:href="#a18zQnE0V" opacity="1" fill="#ffffff" fill-opacity="1"></use><g><use xlink:href="#a18zQnE0V" opacity="1" fill-opacity="0" stroke="#000000" stroke-width="1" stroke-opacity="0"></use></g></g><g><use xlink:href="#b1If9E2mrA" opacity="1" fill="#ffffff" fill-opacity="1"></use><g><use xlink:href="#b1If9E2mrA" opacity="1" fill-opacity="0" stroke="#000000" stroke-width="1" stroke-opacity="0"></use></g></g><g><use xlink:href="#b4oQk2KBlM" opacity="1" fill="#ffffff" fill-opacity="1"></use><g><use xlink:href="#b4oQk2KBlM" opacity="1" fill-opacity="0" stroke="#000000" stroke-width="1" stroke-opacity="0"></use></g></g><g><use xlink:href="#d5V71jpJOp" opacity="1" fill="#ffffff" fill-opacity="1"></use><g><use xlink:href="#d5V71jpJOp" opacity="1" fill-opacity="0" stroke="#000000" stroke-width="1" stroke-opacity="0"></use></g></g><g><use xlink:href="#bddhXrztl" opacity="1" fill="#ffffff" fill-opacity="1"></use><g><use xlink:href="#bddhXrztl" opacity="1" fill-opacity="0" stroke="#000000" stroke-width="1" stroke-opacity="0"></use></g></g><g><use xlink:href="#acgTjlSJs" opacity="1" fill="#ffffff" fill-opacity="1"></use><g><use xlink:href="#acgTjlSJs" opacity="1" fill-opacity="0" stroke="#000000" stroke-width="1" stroke-opacity="0"></use></g></g><g><use xlink:href="#c5X9UcxwUa" opacity="1" fill="#ffffff" fill-opacity="1"></use><g><use xlink:href="#c5X9UcxwUa" opacity="1" fill-opacity="0" stroke="#000000" stroke-width="1" stroke-opacity="0"></use></g></g><g><use xlink:href="#beP2yCWMb" opacity="1" fill="#ffffff" fill-opacity="1"></use><g><use xlink:href="#beP2yCWMb" opacity="1" fill-opacity="0" stroke="#000000" stroke-width="1" stroke-opacity="0"></use></g></g><g><use xlink:href="#b3NZ7VApXN" opacity="1" fill="#ffffff" fill-opacity="1"></use><g><use xlink:href="#b3NZ7VApXN" opacity="1" fill-opacity="0" stroke="#000000" stroke-width="1" stroke-opacity="0"></use></g></g><g><use xlink:href="#a4S40aLaI3" opacity="1" fill="#ffffff" fill-opacity="1"></use><g><use xlink:href="#a4S40aLaI3" opacity="1" fill-opacity="0" stroke="#000000" stroke-width="1" stroke-opacity="0"></use></g></g><g><use xlink:href="#f6IpN0C68z" opacity="1" fill="#ffffff" fill-opacity="1"></use><g><use xlink:href="#f6IpN0C68z" opacity="1" fill-opacity="0" stroke="#000000" stroke-width="1" stroke-opacity="0"></use></g></g><g><use xlink:href="#a2xlUI2EOh" opacity="1" fill="#ffffff" fill-opacity="1"></use><g><use xlink:href="#a2xlUI2EOh" opacity="1" fill-opacity="0" stroke="#000000" stroke-width="1" stroke-opacity="0"></use></g></g><g><use xlink:href="#f1zxHqw8Uf" opacity="1" fill="#ffffff" fill-opacity="1"></use><g><use xlink:href="#f1zxHqw8Uf" opacity="1" fill-opacity="0" stroke="#000000" stroke-width="1" stroke-opacity="0"></use></g></g><g><use xlink:href="#eEOj2kFyk" opacity="1" fill="#ffffff" fill-opacity="1"></use><g><use xlink:href="#eEOj2kFyk" opacity="1" fill-opacity="0" stroke="#000000" stroke-width="1" stroke-opacity="0"></use></g></g><g><use xlink:href="#kfZ4FfhYv" opacity="1" fill="#ffffff" fill-opacity="1"></use><g><use xlink:href="#kfZ4FfhYv" opacity="1" fill-opacity="0" stroke="#000000" stroke-width="1" stroke-opacity="0"></use></g></g><g><use xlink:href="#a4fDQGegl1" opacity="1" fill="#ffffff" fill-opacity="1"></use><g><use xlink:href="#a4fDQGegl1" opacity="1" fill-opacity="0" stroke="#000000" stroke-width="1" stroke-opacity="0"></use></g></g><g><use xlink:href="#b23n6XITUv" opacity="1" fill="#ffffff" fill-opacity="1"></use><g><use xlink:href="#b23n6XITUv" opacity="1" fill-opacity="0" stroke="#000000" stroke-width="1" stroke-opacity="0"></use></g></g><g><use xlink:href="#actnOwHeR" opacity="1" fill="#ffffff" fill-opacity="1"></use><g><use xlink:href="#actnOwHeR" opacity="1" fill-opacity="0" stroke="#000000" stroke-width="1" stroke-opacity="0"></use></g></g><g><use xlink:href="#d6ZOsfDDqJ" opacity="1" fill="#ffffff" fill-opacity="1"></use><g><use xlink:href="#d6ZOsfDDqJ" opacity="1" fill-opacity="0" stroke="#000000" stroke-width="1" stroke-opacity="0"></use></g></g><g><use xlink:href="#fc7gO9UDi" opacity="1" fill="#ffffff" fill-opacity="1"></use><g><use xlink:href="#fc7gO9UDi" opacity="1" fill-opacity="0" stroke="#000000" stroke-width="1" stroke-opacity="0"></use></g></g><g><use xlink:href="#a1k0hfWts" opacity="1" fill="#ffffff" fill-opacity="1"></use><g><use xlink:href="#a1k0hfWts" opacity="1" fill-opacity="0" stroke="#000000" stroke-width="1" stroke-opacity="0"></use></g></g><g><use xlink:href="#asmXGacSw" opacity="1" fill="#ffffff" fill-opacity="1"></use><g><use xlink:href="#asmXGacSw" opacity="1" fill-opacity="0" stroke="#000000" stroke-width="1" stroke-opacity="0"></use></g></g><g><use xlink:href="#b3lr6Vhqfe" opacity="1" fill="#ffffff" fill-opacity="1"></use><g><use xlink:href="#b3lr6Vhqfe" opacity="1" fill-opacity="0" stroke="#000000" stroke-width="1" stroke-opacity="0"></use></g></g><g><use xlink:href="#b6CsKZd4OQ" opacity="1" fill="#ffffff" fill-opacity="1"></use><g><use xlink:href="#b6CsKZd4OQ" opacity="1" fill-opacity="0" stroke="#000000" stroke-width="1" stroke-opacity="0"></use></g></g><g><use xlink:href="#f93ryb0ro" opacity="1" fill="#ffffff" fill-opacity="1"></use><g><use xlink:href="#f93ryb0ro" opacity="1" fill-opacity="0" stroke="#000000" stroke-width="1" stroke-opacity="0"></use></g></g><g><use xlink:href="#f1Aob8mJQP" opacity="1" fill="#ffffff" fill-opacity="1"></use><g><use xlink:href="#f1Aob8mJQP" opacity="1" fill-opacity="0" stroke="#000000" stroke-width="1" stroke-opacity="0"></use></g></g><g><use xlink:href="#ap3B6XuEZ" opacity="1" fill="#ffffff" fill-opacity="1"></use><g><use xlink:href="#ap3B6XuEZ" opacity="1" fill-opacity="0" stroke="#000000" stroke-width="1" stroke-opacity="0"></use></g></g><g><use xlink:href="#dG7wpgIjE" opacity="1" fill="#ffffff" fill-opacity="1"></use><g><use xlink:href="#dG7wpgIjE" opacity="1" fill-opacity="0" stroke="#000000" stroke-width="1" stroke-opacity="0"></use></g></g><g><use xlink:href="#d8Y45AkCot" opacity="1" fill="#ffffff" fill-opacity="1"></use><g><use xlink:href="#d8Y45AkCot" opacity="1" fill-opacity="0" stroke="#000000" stroke-width="1" stroke-opacity="0"></use></g></g><g><use xlink:href="#g4BkBq559l" opacity="1" fill="#ffffff" fill-opacity="1"></use><g><use xlink:href="#g4BkBq559l" opacity="1" fill-opacity="0" stroke="#000000" stroke-width="1" stroke-opacity="0"></use></g></g><g><use xlink:href="#eSzY3SWaB" opacity="1" fill="#ffffff" fill-opacity="1"></use><g><use xlink:href="#eSzY3SWaB" opacity="1" fill-opacity="0" stroke="#000000" stroke-width="1" stroke-opacity="0"></use></g></g><g><use xlink:href="#a9AjBsz72" opacity="1" fill="#ffffff" fill-opacity="1"></use><g><use xlink:href="#a9AjBsz72" opacity="1" fill-opacity="0" stroke="#000000" stroke-width="1" stroke-opacity="0"></use></g></g><g><use xlink:href="#cjP7vJoEk" opacity="1" fill="#ffffff" fill-opacity="1"></use><g><use xlink:href="#cjP7vJoEk" opacity="1" fill-opacity="0" stroke="#000000" stroke-width="1" stroke-opacity="0"></use></g></g><g><use xlink:href="#b2cfZYowbp" opacity="1" fill="#ffffff" fill-opacity="1"></use><g><use xlink:href="#b2cfZYowbp" opacity="1" fill-opacity="0" stroke="#000000" stroke-width="1" stroke-opacity="0"></use></g></g><g><use xlink:href="#b6MYQ4y7fM" opacity="1" fill="#ffffff" fill-opacity="1"></use><g><use xlink:href="#b6MYQ4y7fM" opacity="1" fill-opacity="0" stroke="#000000" stroke-width="1" stroke-opacity="0"></use></g></g><g><use xlink:href="#akq05MI7C" opacity="1" fill="#ffffff" fill-opacity="1"></use><g><use xlink:href="#akq05MI7C" opacity="1" fill-opacity="0" stroke="#000000" stroke-width="1" stroke-opacity="0"></use></g></g><g><use xlink:href="#a3LR192R1H" opacity="1" fill="#ffffff" fill-opacity="1"></use><g><use xlink:href="#a3LR192R1H" opacity="1" fill-opacity="0" stroke="#000000" stroke-width="1" stroke-opacity="0"></use></g></g><g><use xlink:href="#fvVPXvyp9" opacity="1" fill="#ffffff" fill-opacity="1"></use><g><use xlink:href="#fvVPXvyp9" opacity="1" fill-opacity="0" stroke="#000000" stroke-width="1" stroke-opacity="0"></use></g></g><g><use xlink:href="#b2zpfevjbF" opacity="1" fill="#ffffff" fill-opacity="1"></use><g><use xlink:href="#b2zpfevjbF" opacity="1" fill-opacity="0" stroke="#000000" stroke-width="1" stroke-opacity="0"></use></g></g><g><use xlink:href="#a2uVJMNA8E" opacity="1" fill="#ffffff" fill-opacity="1"></use><g><use xlink:href="#a2uVJMNA8E" opacity="1" fill-opacity="0" stroke="#000000" stroke-width="1" stroke-opacity="0"></use></g></g><g><use xlink:href="#c44JmRxGFv" opacity="1" fill="#ffffff" fill-opacity="1"></use><g><use xlink:href="#c44JmRxGFv" opacity="1" fill-opacity="0" stroke="#000000" stroke-width="1" stroke-opacity="0"></use></g></g><g><use xlink:href="#aFXhv9DHB" opacity="1" fill="#ffffff" fill-opacity="1"></use><g><use xlink:href="#aFXhv9DHB" opacity="1" fill-opacity="0" stroke="#000000" stroke-width="1" stroke-opacity="0"></use></g></g><g><use xlink:href="#c1Na0rPuG8" opacity="1" fill="#ffffff" fill-opacity="1"></use><g><use xlink:href="#c1Na0rPuG8" opacity="1" fill-opacity="0" stroke="#000000" stroke-width="1" stroke-opacity="0"></use></g></g><g><use xlink:href="#a1qa36cxaP" opacity="1" fill="#ffffff" fill-opacity="1"></use><g><use xlink:href="#a1qa36cxaP" opacity="1" fill-opacity="0" stroke="#000000" stroke-width="1" stroke-opacity="0"></use></g></g><g><use xlink:href="#j1KlnkFF9c" opacity="1" fill="#ffffff" fill-opacity="1"></use><g><use xlink:href="#j1KlnkFF9c" opacity="1" fill-opacity="0" stroke="#000000" stroke-width="1" stroke-opacity="0"></use></g></g></g></svg>