<svg xmlns="http://www.w3.org/2000/svg" xmlns:xlink="http://www.w3.org/1999/xlink" version="1.1" preserveAspectRatio="xMidYMid meet" viewBox="-1.5543122344752192e-15 1.1102230246251565e-15 205.00000000000003 205" width="205" height="205" style="
"><defs><path d="M0 205L0 0.0L205 0.0L205 205L0 205Z" id="h5j7SobkS3"/><path d="M129.55 155.84L129.55 129.58L198.88 129.58L198.88 155.84L129.55 155.84Z" id="b2fnwsvJf"/><path d="M0 205L0 0.84L205 0.84L205 205L0 205Z" id="lqjIFatdn"/><path d="M0 205L0 0.84L205 0.84L205 205L0 205Z" id="bvx3HeUZJ"/><path d="M0 204.16L0 0L205 0L205 204.16L0 204.16Z" id="a4JJq0w2yD"/><path d="M129.55 129.69L129.55 89.15L155.64 89.15L155.64 129.69L129.55 129.69Z" id="b1KK27m0vm"/><path d="M129.55 129.69L129.55 89.15L155.64 89.15L155.64 129.69L129.55 129.69Z" id="f2HJyNrbv5"/><path d="M129.55 129.69L129.55 89.15L155.64 89.15L155.64 129.69L129.55 129.69Z" id="b1m3wRfut"/><path d="M129.55 129.69L129.55 89.15L155.64 89.15L155.64 129.69L129.55 129.69Z" id="b1nPIh37C6"/><path d="M70.43 155.84L70.43 147.22L96.51 147.22L96.51 155.84L70.43 155.84Z" id="eWW0JJhxp"/><path d="M70.43 155.84L70.43 147.22L96.51 147.22L96.51 155.84L70.43 155.84Z" id="b63RMVSpx"/><path d="M70.43 155.84L70.43 147.22L96.51 147.22L96.51 155.84L70.43 155.84Z" id="d2svMKtrR3"/><path d="M70.43 155.84L70.43 147.22L96.51 147.22L96.51 155.84L70.43 155.84Z" id="a852ZgkYTo"/><path d="M162.37 24.23C173.24 34.82 146.87 77.7 103.52 119.93C60.19 162.17 16.19 187.86 5.32 177.26C-5.55 166.68 20.81 123.79 64.15 81.56C107.49 39.33 151.49 13.64 162.37 24.23Z" id="cgWjiP05g"/><path d="M162.37 24.23C173.24 34.82 146.87 77.7 103.52 119.93C60.19 162.17 16.19 187.86 5.32 177.26C-5.55 166.68 20.81 123.79 64.15 81.56C107.49 39.33 151.49 13.64 162.37 24.23Z" id="b394kbYnu"/><path d="M162.37 24.23C173.24 34.82 146.87 77.7 103.52 119.93C60.19 162.17 16.19 187.86 5.32 177.26C-5.55 166.68 20.81 123.79 64.15 81.56C107.49 39.33 151.49 13.64 162.37 24.23Z" id="e4wX0sfRaD"/><path d="M162.37 24.23C173.24 34.82 146.87 77.7 103.52 119.93C60.19 162.17 16.19 187.86 5.32 177.26C-5.55 166.68 20.81 123.79 64.15 81.56C107.49 39.33 151.49 13.64 162.37 24.23Z" id="a5My88V3ac"/><path d="M143.04 29.64C152.77 39.14 131.19 75.59 94.84 110.99C58.51 146.4 21.1 167.45 11.37 157.96C1.63 148.48 23.24 112.03 59.57 76.62C95.91 41.21 133.31 20.16 143.04 29.64Z" id="a1cZ1umnNO"/><path d="M143.04 29.64C152.77 39.14 131.19 75.59 94.84 110.99C58.51 146.4 21.1 167.45 11.37 157.96C1.63 148.48 23.24 112.03 59.57 76.62C95.91 41.21 133.31 20.16 143.04 29.64Z" id="f5T4fAMXfB"/><path d="M143.04 29.64C152.77 39.14 131.19 75.59 94.84 110.99C58.51 146.4 21.1 167.45 11.37 157.96C1.63 148.48 23.24 112.03 59.57 76.62C95.91 41.21 133.31 20.16 143.04 29.64Z" id="d4WHpY4Ele"/><path d="M143.04 29.64C152.77 39.14 131.19 75.59 94.84 110.99C58.51 146.4 21.1 167.45 11.37 157.96C1.63 148.48 23.24 112.03 59.57 76.62C95.91 41.21 133.31 20.16 143.04 29.64Z" id="b8Ot8GSVr"/><path d="M96.51 98.14L70.43 123.56L70.43 98.14L96.51 98.14Z" id="hNgA4j5ZA"/><path d="M96.51 98.14L70.43 123.56L70.43 98.14L96.51 98.14Z" id="g1eMFQomFp"/><path d="M96.51 98.14L70.43 123.56L70.43 98.14L96.51 98.14Z" id="e2T6Kcnpjh"/><path d="M96.51 98.14L70.43 123.56L70.43 98.14L96.51 98.14Z" id="c1Iq6SdlXv"/><path d="M38.26 68.06L38.26 41.8L70.43 41.8L70.43 68.06L38.26 68.06Z" id="d7g7sZ1RMi"/><path d="M38.26 68.06L38.26 41.8L70.43 41.8L70.43 68.06L38.26 68.06Z" id="ckI89NSox"/><path d="M38.26 68.06L38.26 41.8L70.43 41.8L70.43 68.06L38.26 68.06Z" id="b211eLtOBI"/><path d="M38.26 68.06L38.26 41.8L70.43 41.8L70.43 68.06L38.26 68.06Z" id="e1sfQjoNS9"/><path d="M70.43 98.37L70.43 66.02L96.51 66.02L96.51 98.37L70.43 98.37Z" id="f2HDfLBW1w"/><path d="M70.43 98.37L70.43 66.02L96.51 66.02L96.51 98.37L70.43 98.37Z" id="chjeDDhvf"/><path d="M70.43 98.37L70.43 66.02L96.51 66.02L96.51 98.37L70.43 98.37Z" id="c4LB1LHkLF"/><path d="M70.43 98.37L70.43 66.02L96.51 66.02L96.51 98.37L70.43 98.37Z" id="awJA2xp9C"/><path d="M69.67 68.07L69.67 41.81L120.29 41.81L120.29 68.07L69.67 68.07Z" id="doPOPbnK0"/><path d="M69.67 68.07L69.67 41.81L120.29 41.81L120.29 68.07L69.67 68.07Z" id="a2jY4K1uUd"/><path d="M69.67 68.07L69.67 41.81L120.29 41.81L120.29 68.07L69.67 68.07Z" id="f69EuAn2K"/><path d="M69.67 68.07L69.67 41.81L120.29 41.81L120.29 68.07L69.67 68.07Z" id="d152JNkrNi"/><path d="M96.51 126.32L70.43 148.97L96.51 148.97L96.51 126.32Z" id="cbXzqiFfD"/><path d="M96.51 126.32L70.43 148.97L96.51 148.97L96.51 126.32Z" id="f27XDAbb2"/><path d="M96.51 126.32L70.43 148.97L96.51 148.97L96.51 126.32Z" id="a10glOvk8A"/><path d="M96.51 126.32L70.43 148.97L96.51 148.97L96.51 126.32Z" id="bOCRrBOA"/><path d="M155.64 54.93L129.55 92.01L155.64 92.01L155.64 54.93Z" id="eGoq5gLdv"/><path d="M155.64 54.93L129.55 92.01L155.64 92.01L155.64 54.93Z" id="a58mriqi2E"/><path d="M155.64 54.93L129.55 92.01L155.64 92.01L155.64 54.93Z" id="dW0pjrJhh"/><path d="M155.64 54.93L129.55 92.01L155.64 92.01L155.64 54.93Z" id="knVAIoDbY"/><path d="M129.55 155.84L129.55 129.58L198.88 129.58L198.88 155.84L129.55 155.84Z" id="aertgQEjQ"/><path d="M129.55 155.84L129.55 129.58L198.88 129.58L198.88 155.84L129.55 155.84Z" id="bPn6HSWN7"/><path d="M129.55 155.84L129.55 129.58L198.88 129.58L198.88 155.84L129.55 155.84Z" id="a3WhQiTV9U"/><path d="M198.88 155.84L176.28 129.58L198.88 129.58L198.88 155.84Z" id="bgx3OUXZq"/><path d="M198.88 155.84L176.28 129.58L198.88 129.58L198.88 155.84Z" id="b3aVmj0RA"/><path d="M198.88 155.84L176.28 129.58L198.88 129.58L198.88 155.84Z" id="a2YRvifXDN"/><path d="M198.88 155.84L176.28 129.58L198.88 129.58L198.88 155.84Z" id="c3BOnxyNss"/><path d="M119.94 68.07L129.06 53.08L119.94 53.08L119.94 68.07Z" id="f1pcruq4sf"/><path d="M119.94 68.07L129.06 53.08L119.94 53.08L119.94 68.07Z" id="eTJGwhse"/><path d="M119.94 68.07L129.06 53.08L119.94 53.08L119.94 68.07Z" id="a3UzjFGeze"/><path d="M119.94 68.07L129.06 53.08L119.94 53.08L119.94 68.07Z" id="a7rcTF11Ot"/><path d="M117.24 53.44L117.24 41.8L129.06 41.8L129.06 53.44L117.24 53.44Z" id="gamKcP8Md"/><path d="M117.24 53.44L117.24 41.8L129.06 41.8L129.06 53.44L117.24 53.44Z" id="bcoyRYOcZ"/><path d="M117.24 53.44L117.24 41.8L129.06 41.8L129.06 53.44L117.24 53.44Z" id="f2NuCubow9"/><path d="M117.24 53.44L117.24 41.8L129.06 41.8L129.06 53.44L117.24 53.44Z" id="b1tpQrXfUq"/></defs><g><g><g><use xlink:href="#h5j7SobkS3" opacity="1" fill="#ffffff" fill-opacity="1"/><g><use xlink:href="#h5j7SobkS3" opacity="1" fill-opacity="0" stroke="#000000" stroke-width="1" stroke-opacity="0"/></g></g><g><use xlink:href="#b2fnwsvJf" opacity="1" fill="#186993" fill-opacity="1"/><g><use xlink:href="#b2fnwsvJf" opacity="1" fill-opacity="0" stroke="#000000" stroke-width="1" stroke-opacity="0"/></g></g><g><use xlink:href="#lqjIFatdn" opacity="1" fill="#000000" fill-opacity="0"/><g><use xlink:href="#lqjIFatdn" opacity="1" fill-opacity="0" stroke="#000000" stroke-width="1" stroke-opacity="0"/></g></g><g><use xlink:href="#bvx3HeUZJ" opacity="1" fill="#000000" fill-opacity="0"/><g><use xlink:href="#bvx3HeUZJ" opacity="1" fill-opacity="0" stroke="#000000" stroke-width="1" stroke-opacity="0"/></g></g><g><use xlink:href="#a4JJq0w2yD" opacity="1" fill="#000000" fill-opacity="0"/><g><use xlink:href="#a4JJq0w2yD" opacity="1" fill-opacity="0" stroke="#000000" stroke-width="1" stroke-opacity="0"/></g></g><g><use xlink:href="#b1KK27m0vm" opacity="1" fill="#081340" fill-opacity="1"/><g><use xlink:href="#b1KK27m0vm" opacity="1" fill-opacity="0" stroke="#000000" stroke-width="1" stroke-opacity="0"/></g></g><g><use xlink:href="#f2HJyNrbv5" opacity="1" fill="#000000" fill-opacity="0"/><g><use xlink:href="#f2HJyNrbv5" opacity="1" fill-opacity="0" stroke="#000000" stroke-width="1" stroke-opacity="0"/></g></g><g><use xlink:href="#b1m3wRfut" opacity="1" fill="#000000" fill-opacity="0"/><g><use xlink:href="#b1m3wRfut" opacity="1" fill-opacity="0" stroke="#000000" stroke-width="1" stroke-opacity="0"/></g></g><g><use xlink:href="#b1nPIh37C6" opacity="1" fill="#000000" fill-opacity="0"/><g><use xlink:href="#b1nPIh37C6" opacity="1" fill-opacity="0" stroke="#000000" stroke-width="1" stroke-opacity="0"/></g></g><g><use xlink:href="#eWW0JJhxp" opacity="1" fill="#081340" fill-opacity="1"/><g><use xlink:href="#eWW0JJhxp" opacity="1" fill-opacity="0" stroke="#000000" stroke-width="1" stroke-opacity="0"/></g></g><g><use xlink:href="#b63RMVSpx" opacity="1" fill="#000000" fill-opacity="0"/><g><use xlink:href="#b63RMVSpx" opacity="1" fill-opacity="0" stroke="#000000" stroke-width="1" stroke-opacity="0"/></g></g><g><use xlink:href="#d2svMKtrR3" opacity="1" fill="#000000" fill-opacity="0"/><g><use xlink:href="#d2svMKtrR3" opacity="1" fill-opacity="0" stroke="#000000" stroke-width="1" stroke-opacity="0"/></g></g><g><use xlink:href="#a852ZgkYTo" opacity="1" fill="#000000" fill-opacity="0"/><g><use xlink:href="#a852ZgkYTo" opacity="1" fill-opacity="0" stroke="#000000" stroke-width="1" stroke-opacity="0"/></g></g><g><use xlink:href="#cgWjiP05g" opacity="1" fill="#081340" fill-opacity="1"/><g><use xlink:href="#cgWjiP05g" opacity="1" fill-opacity="0" stroke="#000000" stroke-width="1" stroke-opacity="0"/></g></g><g><use xlink:href="#b394kbYnu" opacity="1" fill="#000000" fill-opacity="0"/><g><use xlink:href="#b394kbYnu" opacity="1" fill-opacity="0" stroke="#000000" stroke-width="1" stroke-opacity="0"/></g></g><g><use xlink:href="#e4wX0sfRaD" opacity="1" fill="#000000" fill-opacity="0"/><g><use xlink:href="#e4wX0sfRaD" opacity="1" fill-opacity="0" stroke="#000000" stroke-width="1" stroke-opacity="0"/></g></g><g><use xlink:href="#a5My88V3ac" opacity="1" fill="#000000" fill-opacity="0"/><g><use xlink:href="#a5My88V3ac" opacity="1" fill-opacity="0" stroke="#000000" stroke-width="1" stroke-opacity="0"/></g></g><g><use xlink:href="#a1cZ1umnNO" opacity="1" fill="#ffffff" fill-opacity="1"/><g><use xlink:href="#a1cZ1umnNO" opacity="1" fill-opacity="0" stroke="#000000" stroke-width="1" stroke-opacity="0"/></g></g><g><use xlink:href="#f5T4fAMXfB" opacity="1" fill="#000000" fill-opacity="0"/><g><use xlink:href="#f5T4fAMXfB" opacity="1" fill-opacity="0" stroke="#000000" stroke-width="1" stroke-opacity="0"/></g></g><g><use xlink:href="#d4WHpY4Ele" opacity="1" fill="#000000" fill-opacity="0"/><g><use xlink:href="#d4WHpY4Ele" opacity="1" fill-opacity="0" stroke="#000000" stroke-width="1" stroke-opacity="0"/></g></g><g><use xlink:href="#b8Ot8GSVr" opacity="1" fill="#000000" fill-opacity="0"/><g><use xlink:href="#b8Ot8GSVr" opacity="1" fill-opacity="0" stroke="#000000" stroke-width="1" stroke-opacity="0"/></g></g><g><use xlink:href="#hNgA4j5ZA" opacity="1" fill="#00ccff" fill-opacity="1"/><g><use xlink:href="#hNgA4j5ZA" opacity="1" fill-opacity="0" stroke="#000000" stroke-width="1" stroke-opacity="0"/></g></g><g><use xlink:href="#g1eMFQomFp" opacity="1" fill="#000000" fill-opacity="0"/><g><use xlink:href="#g1eMFQomFp" opacity="1" fill-opacity="0" stroke="#000000" stroke-width="1" stroke-opacity="0"/></g></g><g><use xlink:href="#e2T6Kcnpjh" opacity="1" fill="#000000" fill-opacity="0"/><g><use xlink:href="#e2T6Kcnpjh" opacity="1" fill-opacity="0" stroke="#000000" stroke-width="1" stroke-opacity="0"/></g></g><g><use xlink:href="#c1Iq6SdlXv" opacity="1" fill="#000000" fill-opacity="0"/><g><use xlink:href="#c1Iq6SdlXv" opacity="1" fill-opacity="0" stroke="#000000" stroke-width="1" stroke-opacity="0"/></g></g><g><use xlink:href="#d7g7sZ1RMi" opacity="1" fill="#081340" fill-opacity="1"/><g><use xlink:href="#d7g7sZ1RMi" opacity="1" fill-opacity="0" stroke="#000000" stroke-width="1" stroke-opacity="0"/></g></g><g><use xlink:href="#ckI89NSox" opacity="1" fill="#000000" fill-opacity="0"/><g><use xlink:href="#ckI89NSox" opacity="1" fill-opacity="0" stroke="#000000" stroke-width="1" stroke-opacity="0"/></g></g><g><use xlink:href="#b211eLtOBI" opacity="1" fill="#000000" fill-opacity="0"/><g><use xlink:href="#b211eLtOBI" opacity="1" fill-opacity="0" stroke="#000000" stroke-width="1" stroke-opacity="0"/></g></g><g><use xlink:href="#e1sfQjoNS9" opacity="1" fill="#000000" fill-opacity="0"/><g><use xlink:href="#e1sfQjoNS9" opacity="1" fill-opacity="0" stroke="#000000" stroke-width="1" stroke-opacity="0"/></g></g><g><use xlink:href="#f2HDfLBW1w" opacity="1" fill="#00ccff" fill-opacity="1"/><g><use xlink:href="#f2HDfLBW1w" opacity="1" fill-opacity="0" stroke="#000000" stroke-width="1" stroke-opacity="0"/></g></g><g><use xlink:href="#chjeDDhvf" opacity="1" fill="#000000" fill-opacity="0"/><g><use xlink:href="#chjeDDhvf" opacity="1" fill-opacity="0" stroke="#000000" stroke-width="1" stroke-opacity="0"/></g></g><g><use xlink:href="#c4LB1LHkLF" opacity="1" fill="#000000" fill-opacity="0"/><g><use xlink:href="#c4LB1LHkLF" opacity="1" fill-opacity="0" stroke="#000000" stroke-width="1" stroke-opacity="0"/></g></g><g><use xlink:href="#awJA2xp9C" opacity="1" fill="#000000" fill-opacity="0"/><g><use xlink:href="#awJA2xp9C" opacity="1" fill-opacity="0" stroke="#000000" stroke-width="1" stroke-opacity="0"/></g></g><g><use xlink:href="#doPOPbnK0" opacity="1" fill="#186993" fill-opacity="1"/><g><use xlink:href="#doPOPbnK0" opacity="1" fill-opacity="0" stroke="#000000" stroke-width="1" stroke-opacity="0"/></g></g><g><use xlink:href="#a2jY4K1uUd" opacity="1" fill="#000000" fill-opacity="0"/><g><use xlink:href="#a2jY4K1uUd" opacity="1" fill-opacity="0" stroke="#000000" stroke-width="1" stroke-opacity="0"/></g></g><g><use xlink:href="#f69EuAn2K" opacity="1" fill="#000000" fill-opacity="0"/><g><use xlink:href="#f69EuAn2K" opacity="1" fill-opacity="0" stroke="#000000" stroke-width="1" stroke-opacity="0"/></g></g><g><use xlink:href="#d152JNkrNi" opacity="1" fill="#000000" fill-opacity="0"/><g><use xlink:href="#d152JNkrNi" opacity="1" fill-opacity="0" stroke="#000000" stroke-width="1" stroke-opacity="0"/></g></g><g><use xlink:href="#cbXzqiFfD" opacity="1" fill="#081340" fill-opacity="1"/><g><use xlink:href="#cbXzqiFfD" opacity="1" fill-opacity="0" stroke="#000000" stroke-width="1" stroke-opacity="0"/></g></g><g><use xlink:href="#f27XDAbb2" opacity="1" fill="#000000" fill-opacity="0"/><g><use xlink:href="#f27XDAbb2" opacity="1" fill-opacity="0" stroke="#000000" stroke-width="1" stroke-opacity="0"/></g></g><g><use xlink:href="#a10glOvk8A" opacity="1" fill="#000000" fill-opacity="0"/><g><use xlink:href="#a10glOvk8A" opacity="1" fill-opacity="0" stroke="#000000" stroke-width="1" stroke-opacity="0"/></g></g><g><use xlink:href="#bOCRrBOA" opacity="1" fill="#000000" fill-opacity="0"/><g><use xlink:href="#bOCRrBOA" opacity="1" fill-opacity="0" stroke="#000000" stroke-width="1" stroke-opacity="0"/></g></g><g><use xlink:href="#eGoq5gLdv" opacity="1" fill="#081340" fill-opacity="1"/><g><use xlink:href="#eGoq5gLdv" opacity="1" fill-opacity="0" stroke="#000000" stroke-width="1" stroke-opacity="0"/></g></g><g><use xlink:href="#a58mriqi2E" opacity="1" fill="#000000" fill-opacity="0"/><g><use xlink:href="#a58mriqi2E" opacity="1" fill-opacity="0" stroke="#000000" stroke-width="1" stroke-opacity="0"/></g></g><g><use xlink:href="#dW0pjrJhh" opacity="1" fill="#000000" fill-opacity="0"/><g><use xlink:href="#dW0pjrJhh" opacity="1" fill-opacity="0" stroke="#000000" stroke-width="1" stroke-opacity="0"/></g></g><g><use xlink:href="#knVAIoDbY" opacity="1" fill="#000000" fill-opacity="0"/><g><use xlink:href="#knVAIoDbY" opacity="1" fill-opacity="0" stroke="#000000" stroke-width="1" stroke-opacity="0"/></g></g><g><use xlink:href="#aertgQEjQ" opacity="1" fill="#000000" fill-opacity="0"/><g><use xlink:href="#aertgQEjQ" opacity="1" fill-opacity="0" stroke="#000000" stroke-width="1" stroke-opacity="0"/></g></g><g><use xlink:href="#bPn6HSWN7" opacity="1" fill="#000000" fill-opacity="0"/><g><use xlink:href="#bPn6HSWN7" opacity="1" fill-opacity="0" stroke="#000000" stroke-width="1" stroke-opacity="0"/></g></g><g><use xlink:href="#a3WhQiTV9U" opacity="1" fill="#000000" fill-opacity="0"/><g><use xlink:href="#a3WhQiTV9U" opacity="1" fill-opacity="0" stroke="#000000" stroke-width="1" stroke-opacity="0"/></g></g><g><use xlink:href="#bgx3OUXZq" opacity="1" fill="#00ccff" fill-opacity="1"/><g><use xlink:href="#bgx3OUXZq" opacity="1" fill-opacity="0" stroke="#000000" stroke-width="1" stroke-opacity="0"/></g></g><g><use xlink:href="#b3aVmj0RA" opacity="1" fill="#000000" fill-opacity="0"/><g><use xlink:href="#b3aVmj0RA" opacity="1" fill-opacity="0" stroke="#000000" stroke-width="1" stroke-opacity="0"/></g></g><g><use xlink:href="#a2YRvifXDN" opacity="1" fill="#000000" fill-opacity="0"/><g><use xlink:href="#a2YRvifXDN" opacity="1" fill-opacity="0" stroke="#000000" stroke-width="1" stroke-opacity="0"/></g></g><g><use xlink:href="#c3BOnxyNss" opacity="1" fill="#000000" fill-opacity="0"/><g><use xlink:href="#c3BOnxyNss" opacity="1" fill-opacity="0" stroke="#000000" stroke-width="1" stroke-opacity="0"/></g></g><g><use xlink:href="#f1pcruq4sf" opacity="1" fill="#186993" fill-opacity="1"/><g><use xlink:href="#f1pcruq4sf" opacity="1" fill-opacity="0" stroke="#000000" stroke-width="1" stroke-opacity="0"/></g></g><g><use xlink:href="#eTJGwhse" opacity="1" fill="#000000" fill-opacity="0"/><g><use xlink:href="#eTJGwhse" opacity="1" fill-opacity="0" stroke="#000000" stroke-width="1" stroke-opacity="0"/></g></g><g><use xlink:href="#a3UzjFGeze" opacity="1" fill="#000000" fill-opacity="0"/><g><use xlink:href="#a3UzjFGeze" opacity="1" fill-opacity="0" stroke="#000000" stroke-width="1" stroke-opacity="0"/></g></g><g><use xlink:href="#a7rcTF11Ot" opacity="1" fill="#000000" fill-opacity="0"/><g><use xlink:href="#a7rcTF11Ot" opacity="1" fill-opacity="0" stroke="#000000" stroke-width="1" stroke-opacity="0"/></g></g><g><use xlink:href="#gamKcP8Md" opacity="1" fill="#186993" fill-opacity="1"/><g><use xlink:href="#gamKcP8Md" opacity="1" fill-opacity="0" stroke="#000000" stroke-width="1" stroke-opacity="0"/></g></g><g><use xlink:href="#bcoyRYOcZ" opacity="1" fill="#000000" fill-opacity="0"/><g><use xlink:href="#bcoyRYOcZ" opacity="1" fill-opacity="0" stroke="#000000" stroke-width="1" stroke-opacity="0"/></g></g><g><use xlink:href="#f2NuCubow9" opacity="1" fill="#000000" fill-opacity="0"/><g><use xlink:href="#f2NuCubow9" opacity="1" fill-opacity="0" stroke="#000000" stroke-width="1" stroke-opacity="0"/></g></g><g><use xlink:href="#b1tpQrXfUq" opacity="1" fill="#000000" fill-opacity="0"/><g><use xlink:href="#b1tpQrXfUq" opacity="1" fill-opacity="0" stroke="#000000" stroke-width="1" stroke-opacity="0"/></g></g></g></g></svg>